<svg width="600" height="480" viewBox="0 0 600 480" fill="none" xmlns="http://www.w3.org/2000/svg">
<g clip-path="url(#clip0_0_1)">
<rect width="600" height="480" fill="white"/>
<path d="M20.97 462H29.97" stroke="black"/>
<path d="M20.97 412.67H29.97" stroke="black"/>
<path d="M20.97 363.34H29.97" stroke="black"/>
<path d="M20.97 314H29.97" stroke="black"/>
<path d="M20.97 264.67H29.97" stroke="black"/>
<path d="M20.97 215.34H29.97" stroke="black"/>
<path d="M20.97 166.01H29.97" stroke="black"/>
<path d="M20.97 116.67H29.97" stroke="black"/>
<path d="M20.97 67.3401H29.97" stroke="black"/>
<path d="M20.97 18.01H29.97" stroke="black"/>
<path d="M20.97 462V453" stroke="black"/>
<path d="M100.09 462V453" stroke="black"/>
<path d="M179.21 462V453" stroke="black"/>
<path d="M258.33 462V453" stroke="black"/>
<path d="M337.46 462V453" stroke="black"/>
<path d="M416.58 462V453" stroke="black"/>
<path d="M495.7 462V453" stroke="black"/>
<path d="M574.82 462V453" stroke="black"/>
<path d="M442.73 165.495L436.745 174.495H448.715L442.73 165.495Z" stroke="black" stroke-width="0.999"/>
<path d="M240.744 418.7L234.38 412.336L228.016 418.7L234.38 425.064L240.744 418.7Z" stroke="black" stroke-width="0.999"/>
<path d="M460.18 84.3899H469.18M464.68 79.8899V88.8899M460.18 79.8899L469.18 88.8899M460.18 88.8899L469.18 79.8899" stroke="black" stroke-width="0.999"/>
<path d="M404.32 420.58L413.32 429.58M413.32 420.58L404.32 429.58" stroke="black" stroke-width="0.999"/>
<path d="M421.764 84.1L415.4 77.7361L409.036 84.1L415.4 90.464L421.764 84.1Z" fill="#9B96B0" stroke="black" stroke-width="0.999"/>
<path d="M219.854 421.66L213.49 415.296L207.126 421.66L213.49 428.024L219.854 421.66Z" stroke="black" stroke-width="0.999"/>
<path d="M500.56 229.73H509.56M505.06 225.23V234.23" stroke="black" stroke-width="0.999"/>
<path d="M215.65 180.145L209.665 189.145H221.635L215.65 180.145Z" stroke="black" stroke-width="0.999"/>
<path d="M221.504 416.15L215.14 409.786L208.776 416.15L215.14 422.514L221.504 416.15Z" stroke="black" stroke-width="0.999"/>
<path d="M86.92 314.755L92.905 305.755H80.935L86.92 314.755Z" fill="#9B96B0" stroke="black" stroke-width="0.999"/>
<path d="M438.5 115.05H447.5M443 110.55V119.55M438.5 110.55L447.5 119.55M438.5 119.55L447.5 110.55" stroke="black" stroke-width="0.999"/>
<path d="M139.92 137.205L145.905 128.205H133.935L139.92 137.205Z" fill="#9B96B0" stroke="black" stroke-width="0.999"/>
<path d="M435.074 56.04L428.71 49.676L422.346 56.04L428.71 62.4039L435.074 56.04Z" fill="#9B96B0" stroke="black" stroke-width="0.999"/>
<path d="M472.83 344.77H463.83V353.77H472.83V344.77Z" stroke="black" stroke-width="0.999"/>
<path d="M193.944 383.67L187.58 377.306L181.216 383.67L187.58 390.034L193.944 383.67Z" stroke="black" stroke-width="0.999"/>
<path d="M466.15 394.54H475.15M470.65 390.04V399.04" stroke="black" stroke-width="0.999"/>
<path d="M301.3 174.875L295.315 183.875H307.285L301.3 174.875Z" stroke="black" stroke-width="0.999"/>
<path d="M412.9 142.215L406.915 151.215H418.885L412.9 142.215Z" stroke="black" stroke-width="0.999"/>
<path d="M119.92 235.825L125.905 226.825H113.935L119.92 235.825Z" fill="#9B96B0" stroke="black" stroke-width="0.999"/>
<path d="M160.39 171.395L166.375 162.395H154.405L160.39 171.395Z" stroke="black" stroke-width="0.999"/>
<path d="M396.44 404.7L405.44 413.7M405.44 404.7L396.44 413.7" stroke="black" stroke-width="0.999"/>
<path d="M378.48 406.79L387.48 415.79M387.48 406.79L378.48 415.79" stroke="black" stroke-width="0.999"/>
<path d="M471.51 191.79H480.51M476.01 187.29V196.29M471.51 187.29L480.51 196.29M471.51 196.29L480.51 187.29" stroke="black" stroke-width="0.999"/>
<path d="M406.38 407.68L415.38 416.68M415.38 407.68L406.38 416.68" stroke="black" stroke-width="0.999"/>
<path d="M211.124 400.3L204.76 393.936L198.396 400.3L204.76 406.664L211.124 400.3Z" stroke="black" stroke-width="0.999"/>
<path d="M183.67 153.405L189.655 144.405H177.685L183.67 153.405Z" stroke="black" stroke-width="0.999"/>
<path d="M462.44 100.43H471.44M466.94 95.9299V104.93M462.44 95.9299L471.44 104.93M462.44 104.93L471.44 95.9299" stroke="black" stroke-width="0.999"/>
<path d="M118.49 205.045L124.475 196.045H112.505L118.49 205.045Z" fill="#9B96B0" stroke="black" stroke-width="0.999"/>
<path d="M495.6 243.09H504.6M500.1 238.59V247.59" stroke="black" stroke-width="0.999"/>
<path d="M160.1 185.235L166.085 176.235H154.115L160.1 185.235Z" stroke="black" stroke-width="0.999"/>
<path d="M472.74 156.775L466.755 165.775H478.725L472.74 156.775Z" stroke="black" stroke-width="0.999"/>
<path d="M169.5 84.875L175.485 75.875H163.515L169.5 84.875Z" fill="#9B96B0" stroke="black" stroke-width="0.999"/>
<path d="M233.264 420.43L226.9 414.066L220.536 420.43L226.9 426.794L233.264 420.43Z" stroke="black" stroke-width="0.999"/>
<path d="M195.774 391.76L189.41 385.396L183.046 391.76L189.41 398.124L195.774 391.76Z" stroke="black" stroke-width="0.999"/>
<path d="M159.09 203.325L165.075 194.325H153.105L159.09 203.325Z" stroke="black" stroke-width="0.999"/>
<path d="M452.34 107.45H461.34M456.84 102.95V111.95M452.34 102.95L461.34 111.95M452.34 111.95L461.34 102.95" stroke="black" stroke-width="0.999"/>
<path d="M92.74 205.555L98.725 196.555H86.755L92.74 205.555Z" fill="#9B96B0" stroke="black" stroke-width="0.999"/>
<path d="M380.6 348.75L389.6 357.75M389.6 348.75L380.6 357.75" stroke="black" stroke-width="0.999"/>
<path d="M127.72 132.275L133.705 123.275H121.735L127.72 132.275Z" fill="#9B96B0" stroke="black" stroke-width="0.999"/>
<path d="M404.44 348.94L413.44 357.94M413.44 348.94L404.44 357.94" stroke="black" stroke-width="0.999"/>
<path d="M503.09 256.79H512.09M507.59 252.29V261.29" stroke="black" stroke-width="0.999"/>
<path d="M468.05 102.21H477.05M472.55 97.71V106.71M468.05 97.71L477.05 106.71M468.05 106.71L477.05 97.71" stroke="black" stroke-width="0.999"/>
<path d="M488.28 297.6H479.28V306.6H488.28V297.6Z" stroke="black" stroke-width="0.999"/>
<path d="M451.91 150.205L445.925 159.205H457.895L451.91 150.205Z" stroke="black" stroke-width="0.999"/>
<path d="M499.79 286.42H490.79V295.42H499.79V286.42Z" stroke="black" stroke-width="0.999"/>
<path d="M127.64 177.215L133.625 168.215H121.655L127.64 177.215Z" fill="black" stroke="black" stroke-width="0.999"/>
<path d="M89.55 203.725L95.535 194.725H83.565L89.55 203.725Z" fill="#9B96B0" stroke="black" stroke-width="0.999"/>
<path d="M140.88 169.895L146.865 160.895H134.895L140.88 169.895Z" stroke="black" stroke-width="0.999"/>
<path d="M453.04 107.12H462.04M457.54 102.62V111.62M453.04 102.62L462.04 111.62M453.04 111.62L462.04 102.62" stroke="black" stroke-width="0.999"/>
<path d="M160.1 185.235L166.085 176.235H154.115L160.1 185.235Z" stroke="black" stroke-width="0.999"/>
<path d="M137.58 127.595L143.565 118.595H131.595L137.58 127.595Z" fill="black" stroke="black" stroke-width="0.999"/>
<path d="M469.84 396.22H478.84M474.34 391.72V400.72" stroke="black" stroke-width="0.999"/>
<path d="M432.42 385.92L441.42 394.92M441.42 385.92L432.42 394.92" stroke="black" stroke-width="0.999"/>
<path d="M505.21 313.58H496.21V322.58H505.21V313.58Z" stroke="black" stroke-width="0.999"/>
<path d="M227.494 440.37L221.13 434.006L214.766 440.37L221.13 446.734L227.494 440.37Z" stroke="black" stroke-width="0.999"/>
<path d="M404.32 420.58L413.32 429.58M413.32 420.58L404.32 429.58" stroke="black" stroke-width="0.999"/>
<path d="M504.87 246.46H513.87M509.37 241.96V250.96" stroke="black" stroke-width="0.999"/>
<path d="M129.56 217.395L135.545 208.395H123.575L129.56 217.395Z" stroke="black" stroke-width="0.999"/>
<path d="M427.754 71.1101L421.39 64.7461L415.026 71.1101L421.39 77.474L427.754 71.1101Z" fill="black" stroke="black" stroke-width="0.999"/>
<path d="M355.73 87.4949L349.745 96.4949H361.715L355.73 87.4949Z" stroke="black" stroke-width="0.999"/>
<path d="M428.504 54.07L422.14 47.7061L415.776 54.07L422.14 60.434L428.504 54.07Z" fill="#9B96B0" stroke="black" stroke-width="0.999"/>
<path d="M223.384 432.12L217.02 425.756L210.656 432.12L217.02 438.484L223.384 432.12Z" stroke="black" stroke-width="0.999"/>
<path d="M97.79 278.835L103.775 269.835H91.805L97.79 278.835Z" stroke="black" stroke-width="0.999"/>
<path d="M426.974 59.9399L420.61 53.5759L414.246 59.9399L420.61 66.3038L426.974 59.9399Z" fill="#9B96B0" stroke="black" stroke-width="0.999"/>
<path d="M434.17 415.03L443.17 424.03M443.17 415.03L434.17 424.03" stroke="black" stroke-width="0.999"/>
<path d="M192.174 404.83L185.81 398.466L179.446 404.83L185.81 411.194L192.174 404.83Z" stroke="black" stroke-width="0.999"/>
<path d="M218.194 397.72L211.83 391.356L205.466 397.72L211.83 404.084L218.194 397.72Z" stroke="black" stroke-width="0.999"/>
<path d="M502.93 262.4H511.93M507.43 257.9V266.9" stroke="black" stroke-width="0.999"/>
<path d="M466.22 163.965L460.235 172.965H472.205L466.22 163.965Z" stroke="black" stroke-width="0.999"/>
<path d="M501.67 272.96H510.67M506.17 268.46V277.46" stroke="black" stroke-width="0.999"/>
<path d="M84.51 251.645L90.495 242.645H78.525L84.51 251.645Z" fill="#9B96B0" stroke="black" stroke-width="0.999"/>
<path d="M494.2 286.87H503.2M498.7 282.37V291.37" stroke="black" stroke-width="0.999"/>
<path d="M400.57 399.5L409.57 408.5M409.57 399.5L400.57 408.5" stroke="black" stroke-width="0.999"/>
<path d="M127.64 177.215L133.625 168.215H121.655L127.64 177.215Z" fill="#9B96B0" stroke="black" stroke-width="0.999"/>
<path d="M390.59 175.525L384.605 184.525H396.575L390.59 175.525Z" stroke="black" stroke-width="0.999"/>
<path d="M503.44 269.74H512.44M507.94 265.24V274.24" stroke="black" stroke-width="0.999"/>
<path d="M434.87 140.485L428.885 149.485H440.855L434.87 140.485Z" stroke="black" stroke-width="0.999"/>
<path d="M478.08 379.63H487.08M482.58 375.13V384.13" stroke="black" stroke-width="0.999"/>
<path d="M484.23 309.27H493.23M488.73 304.77V313.77" stroke="black" stroke-width="0.999"/>
<path d="M165.06 145.205L171.045 136.205H159.075L165.06 145.205Z" stroke="black" stroke-width="0.999"/>
<path d="M478.63 171.95H487.63M483.13 167.45V176.45M478.63 167.45L487.63 176.45M478.63 176.45L487.63 167.45" stroke="black" stroke-width="0.999"/>
<path d="M137.76 166.405L143.745 157.405H131.775L137.76 166.405Z" fill="#9B96B0" stroke="black" stroke-width="0.999"/>
<path d="M453.35 90.98H462.35M457.85 86.48V95.48M453.35 86.48L462.35 95.48M453.35 95.48L462.35 86.48" stroke="black" stroke-width="0.999"/>
<path d="M429.964 99.4001L423.6 93.0361L417.236 99.4001L423.6 105.764L429.964 99.4001Z" fill="#9B96B0" stroke="black" stroke-width="0.999"/>
<path d="M499.88 258.82H490.88V267.82H499.88V258.82Z" stroke="black" stroke-width="0.999"/>
<path d="M219.734 408.1L213.37 401.736L207.006 408.1L213.37 414.464L219.734 408.1Z" stroke="black" stroke-width="0.999"/>
<path d="M456.07 90.24H465.07M460.57 85.74V94.74M456.07 85.74L465.07 94.74M456.07 94.74L465.07 85.74" stroke="black" stroke-width="0.999"/>
<path d="M504.99 263.69H513.99M509.49 259.19V268.19" stroke="black" stroke-width="0.999"/>
<path d="M510.89 230.44H501.89V239.44H510.89V230.44Z" stroke="black" stroke-width="0.999"/>
<path d="M149.39 204.185L155.375 195.185H143.405L149.39 204.185Z" stroke="black" stroke-width="0.999"/>
<path d="M346.44 165.055L340.455 174.055H352.425L346.44 165.055Z" stroke="black" stroke-width="0.999"/>
<path d="M149.98 114.035L155.965 105.035H143.995L149.98 114.035Z" fill="#9B96B0" stroke="black" stroke-width="0.999"/>
<path d="M407.68 152.345L401.695 161.345H413.665L407.68 152.345Z" stroke="black" stroke-width="0.999"/>
<path d="M505.44 249.81H514.44M509.94 245.31V254.31" stroke="black" stroke-width="0.999"/>
<path d="M184.054 383.04L177.69 376.676L171.326 383.04L177.69 389.404L184.054 383.04Z" stroke="black" stroke-width="0.999"/>
<path d="M415.62 414.6L424.62 423.6M424.62 414.6L415.62 423.6" stroke="black" stroke-width="0.999"/>
<path d="M153.89 224.975L159.875 215.975H147.905L153.89 224.975Z" stroke="black" stroke-width="0.999"/>
<path d="M477.76 99.8799H486.76M482.26 95.3799V104.38M477.76 95.3799L486.76 104.38M477.76 104.38L486.76 95.3799" stroke="black" stroke-width="0.999"/>
<path d="M148.44 185.755L154.425 176.755H142.455L148.44 185.755Z" stroke="black" stroke-width="0.999"/>
<path d="M136.65 129.175L142.635 120.175H130.665L136.65 129.175Z" fill="#9B96B0" stroke="black" stroke-width="0.999"/>
<path d="M507.66 207.73H498.66V216.73H507.66V207.73Z" stroke="black" stroke-width="0.999"/>
<path d="M355.71 351.99L364.71 360.99M364.71 351.99L355.71 360.99" stroke="black" stroke-width="0.999"/>
<path d="M360.38 429.31H369.38M364.88 424.81V433.81" stroke="black" stroke-width="0.999"/>
<path d="M207.224 404.38L200.86 398.016L194.496 404.38L200.86 410.744L207.224 404.38Z" stroke="black" stroke-width="0.999"/>
<path d="M465.96 98.395L459.975 107.395H471.945L465.96 98.395Z" stroke="black" stroke-width="0.999"/>
<path d="M115.88 212.935L121.865 203.935H109.895L115.88 212.935Z" stroke="black" stroke-width="0.999"/>
<path d="M390.3 138.175L384.315 147.175H396.285L390.3 138.175Z" stroke="black" stroke-width="0.999"/>
<path d="M424.52 187.205L418.535 196.205H430.505L424.52 187.205Z" stroke="black" stroke-width="0.999"/>
<path d="M473.49 264.59H464.49V273.59H473.49V264.59Z" stroke="black" stroke-width="0.999"/>
<path d="M423.67 327.19L432.67 336.19M432.67 327.19L423.67 336.19" stroke="black" stroke-width="0.999"/>
<path d="M503.46 294.11H512.46M507.96 289.61V298.61" stroke="black" stroke-width="0.999"/>
<path d="M150.55 209.275L156.535 200.275H144.565L150.55 209.275Z" stroke="black" stroke-width="0.999"/>
<path d="M184.054 383.04L177.69 376.676L171.326 383.04L177.69 389.404L184.054 383.04Z" stroke="black" stroke-width="0.999"/>
<path d="M233.194 414.93L226.83 408.566L220.466 414.93L226.83 421.294L233.194 414.93Z" stroke="black" stroke-width="0.999"/>
<path d="M431.57 385.44L440.57 394.44M440.57 385.44L431.57 394.44" stroke="black" stroke-width="0.999"/>
<path d="M452.95 117.58H461.95M457.45 113.08V122.08M452.95 113.08L461.95 122.08M452.95 122.08L461.95 113.08" stroke="black" stroke-width="0.999"/>
<path d="M478.63 171.95H487.63M483.13 167.45V176.45M478.63 167.45L487.63 176.45M478.63 176.45L487.63 167.45" stroke="black" stroke-width="0.999"/>
<path d="M431.16 172.185L425.175 181.185H437.145L431.16 172.185Z" stroke="black" stroke-width="0.999"/>
<path d="M424.954 54.55L418.59 48.186L412.226 54.55L418.59 60.914L424.954 54.55Z" fill="black" stroke="black" stroke-width="0.999"/>
<path d="M508.95 274.2H499.95V283.2H508.95V274.2Z" stroke="black" stroke-width="0.999"/>
<path d="M472.74 156.775L466.755 165.775H478.725L472.74 156.775Z" stroke="black" stroke-width="0.999"/>
<path d="M509.78 273.26H518.78M514.28 268.76V277.76" stroke="black" stroke-width="0.999"/>
<path d="M186.444 403.51L180.08 397.146L173.716 403.51L180.08 409.874L186.444 403.51Z" stroke="black" stroke-width="0.999"/>
<path d="M346.16 136.425L340.175 145.425H352.145L346.16 136.425Z" stroke="black" stroke-width="0.999"/>
<path d="M421.384 95.6201L415.02 89.2561L408.656 95.6201L415.02 101.984L421.384 95.6201Z" fill="#9B96B0" stroke="black" stroke-width="0.999"/>
<path d="M149.38 195.385L155.365 186.385H143.395L149.38 195.385Z" stroke="black" stroke-width="0.999"/>
<path d="M492.17 149.91H501.17M496.67 145.41V154.41M492.17 145.41L501.17 154.41M492.17 154.41L501.17 145.41" stroke="black" stroke-width="0.999"/>
<path d="M505.44 249.81H514.44M509.94 245.31V254.31" stroke="black" stroke-width="0.999"/>
<path d="M499.91 288.65H490.91V297.65H499.91V288.65Z" stroke="black" stroke-width="0.999"/>
<path d="M144.4 244.285L150.385 235.285H138.415L144.4 244.285Z" stroke="black" stroke-width="0.999"/>
<path d="M246.44 137.715L252.425 128.715H240.455L246.44 137.715Z" stroke="black" stroke-width="0.999"/>
<path d="M494.89 253.03H485.89V262.03H494.89V253.03Z" stroke="black" stroke-width="0.999"/>
<path d="M460.18 84.3899H469.18M464.68 79.8899V88.8899M460.18 79.8899L469.18 88.8899M460.18 88.8899L469.18 79.8899" stroke="black" stroke-width="0.999"/>
<path d="M216.654 414.13L210.29 407.766L203.926 414.13L210.29 420.494L216.654 414.13Z" stroke="black" stroke-width="0.999"/>
<path d="M509.67 259.21H518.67M514.17 254.71V263.71" stroke="black" stroke-width="0.999"/>
<path d="M413.13 366.55L422.13 375.55M422.13 366.55L413.13 375.55" stroke="black" stroke-width="0.999"/>
<path d="M396.44 404.7L405.44 413.7M405.44 404.7L396.44 413.7" stroke="black" stroke-width="0.999"/>
<path d="M486.24 299.59H477.24V308.59H486.24V299.59Z" stroke="black" stroke-width="0.999"/>
<path d="M417.46 389.11L426.46 398.11M426.46 389.11L417.46 398.11" stroke="black" stroke-width="0.999"/>
<path d="M505.21 243.8H514.21M509.71 239.3V248.3" stroke="black" stroke-width="0.999"/>
<path d="M431.49 369.21H422.49V378.21H431.49V369.21Z" stroke="black" stroke-width="0.999"/>
<path d="M375.07 131.635L369.085 140.635H381.055L375.07 131.635Z" stroke="black" stroke-width="0.999"/>
<path d="M409.61 128.625L403.625 137.625H415.595L409.61 128.625Z" stroke="black" stroke-width="0.999"/>
<path d="M215.844 395.5L209.48 389.136L203.116 395.5L209.48 401.864L215.844 395.5Z" stroke="black" stroke-width="0.999"/>
<path d="M106.31 189.805L112.295 180.805H100.325L106.31 189.805Z" fill="#9B96B0" stroke="black" stroke-width="0.999"/>
<path d="M388.15 165.735L382.165 174.735H394.135L388.15 165.735Z" stroke="black" stroke-width="0.999"/>
<path d="M396.44 404.7L405.44 413.7M405.44 404.7L396.44 413.7" stroke="black" stroke-width="0.999"/>
<path d="M208.684 396.96L202.32 390.596L195.956 396.96L202.32 403.324L208.684 396.96Z" stroke="black" stroke-width="0.999"/>
<path d="M498.11 268.26H507.11M502.61 263.76V272.76" stroke="black" stroke-width="0.999"/>
<path d="M401.69 208.745L395.705 217.745H407.675L401.69 208.745Z" stroke="black" stroke-width="0.999"/>
<path d="M96.18 259.335L102.165 250.335H90.195L96.18 259.335Z" fill="black" stroke="black" stroke-width="0.999"/>
<path d="M133.85 168.045L139.835 159.045H127.865L133.85 168.045Z" fill="black" stroke="black" stroke-width="0.999"/>
<path d="M190.024 402.49L183.66 396.126L177.296 402.49L183.66 408.854L190.024 402.49Z" stroke="black" stroke-width="0.999"/>
<path d="M396.63 134.875L390.645 143.875H402.615L396.63 134.875Z" stroke="black" stroke-width="0.999"/>
<path d="M223.784 391.67L217.42 385.306L211.056 391.67L217.42 398.034L223.784 391.67Z" stroke="black" stroke-width="0.999"/>
<path d="M249.59 181.665L243.605 190.665H255.575L249.59 181.665Z" stroke="black" stroke-width="0.999"/>
<path d="M387.17 173.825L381.185 182.825H393.155L387.17 173.825Z" stroke="black" stroke-width="0.999"/>
<path d="M140.19 154.925L146.175 145.925H134.205L140.19 154.925Z" fill="#9B96B0" stroke="black" stroke-width="0.999"/>
<path d="M444.96 342.61H453.96M449.46 338.11V347.11" stroke="black" stroke-width="0.999"/>
<path d="M387.23 404H396.23M391.73 399.5V408.5" stroke="black" stroke-width="0.999"/>
<path d="M505.34 269.7H514.34M509.84 265.2V274.2" stroke="black" stroke-width="0.999"/>
<path d="M421.89 138.745L415.905 147.745H427.875L421.89 138.745Z" stroke="black" stroke-width="0.999"/>
<path d="M468.73 96.77H477.73M473.23 92.27V101.27M468.73 92.27L477.73 101.27M468.73 101.27L477.73 92.27" stroke="black" stroke-width="0.999"/>
<path d="M491.02 288.04H500.02M495.52 283.54V292.54" stroke="black" stroke-width="0.999"/>
<path d="M111.47 185.985L117.455 176.985H105.485L111.47 185.985Z" fill="#9B96B0" stroke="black" stroke-width="0.999"/>
<path d="M229.65 119.315L235.635 110.315H223.665L229.65 119.315Z" stroke="black" stroke-width="0.999"/>
<path d="M485.31 258.24H476.31V267.24H485.31V258.24Z" stroke="black" stroke-width="0.999"/>
<path d="M413.31 373.9L422.31 382.9M422.31 373.9L413.31 382.9" stroke="black" stroke-width="0.999"/>
<path d="M233.264 420.43L226.9 414.066L220.536 420.43L226.9 426.794L233.264 420.43Z" stroke="black" stroke-width="0.999"/>
<path d="M432.204 73.1599L425.84 66.7959L419.476 73.1599L425.84 79.5238L432.204 73.1599Z" fill="#9B96B0" stroke="black" stroke-width="0.999"/>
<path d="M196.324 388.36L189.96 381.996L183.596 388.36L189.96 394.724L196.324 388.36Z" stroke="black" stroke-width="0.999"/>
<path d="M80.82 261.945L86.805 252.945H74.835L80.82 261.945Z" fill="#9B96B0" stroke="black" stroke-width="0.999"/>
<path d="M134.05 177.355L140.035 168.355H128.065L134.05 177.355Z" stroke="black" stroke-width="0.999"/>
<path d="M478.84 376.81H487.84M483.34 372.31V381.31" stroke="black" stroke-width="0.999"/>
<path d="M401.134 141.3L394.77 134.936L388.406 141.3L394.77 147.664L401.134 141.3Z" fill="#9B96B0" stroke="black" stroke-width="0.999"/>
<path d="M414.15 424.8L423.15 433.8M423.15 424.8L414.15 433.8" stroke="black" stroke-width="0.999"/>
<path d="M507.66 207.73H498.66V216.73H507.66V207.73Z" stroke="black" stroke-width="0.999"/>
<path d="M133.85 168.045L139.835 159.045H127.865L133.85 168.045Z" fill="#9B96B0" stroke="black" stroke-width="0.999"/>
<path d="M142.6 226.135L148.585 217.135H136.615L142.6 226.135Z" stroke="black" stroke-width="0.999"/>
<path d="M481.61 327.55H490.61M486.11 323.05V332.05" stroke="black" stroke-width="0.999"/>
<path d="M453.75 138.22H462.75M458.25 133.72V142.72M453.75 133.72L462.75 142.72M453.75 142.72L462.75 133.72" stroke="black" stroke-width="0.999"/>
<path d="M441.45 71.4199H450.45M445.95 66.9199V75.9199M441.45 66.9199L450.45 75.9199M441.45 75.9199L450.45 66.9199" stroke="black" stroke-width="0.999"/>
<path d="M500.91 256.44H491.91V265.44H500.91V256.44Z" stroke="black" stroke-width="0.999"/>
<path d="M149.99 139.455L155.975 130.455H144.005L149.99 139.455Z" fill="#9B96B0" stroke="black" stroke-width="0.999"/>
<path d="M96.18 259.335L102.165 250.335H90.195L96.18 259.335Z" fill="#9B96B0" stroke="black" stroke-width="0.999"/>
<path d="M476.03 283.78H467.03V292.78H476.03V283.78Z" stroke="black" stroke-width="0.999"/>
<path d="M437.334 91.08L430.97 84.7161L424.606 91.08L430.97 97.444L437.334 91.08Z" fill="#9B96B0" stroke="black" stroke-width="0.999"/>
<path d="M149.1 123.955L155.085 114.955H143.115L149.1 123.955Z" fill="#9B96B0" stroke="black" stroke-width="0.999"/>
<path d="M499.16 316.67H490.16V325.67H499.16V316.67Z" stroke="black" stroke-width="0.999"/>
<path d="M509.49 246.15H518.49M513.99 241.65V250.65" stroke="black" stroke-width="0.999"/>
<path d="M438.99 314.01L447.99 323.01M447.99 314.01L438.99 323.01" stroke="black" stroke-width="0.999"/>
<path d="M439.224 98.57L432.86 92.2061L426.496 98.57L432.86 104.934L439.224 98.57Z" fill="#9B96B0" stroke="black" stroke-width="0.999"/>
<path d="M424.954 54.55L418.59 48.186L412.226 54.55L418.59 60.914L424.954 54.55Z" fill="#9B96B0" stroke="black" stroke-width="0.999"/>
<path d="M177.18 145.675L183.165 136.675H171.195L177.18 145.675Z" stroke="black" stroke-width="0.999"/>
<path d="M498.83 293.34H489.83V302.34H498.83V293.34Z" stroke="black" stroke-width="0.999"/>
<path d="M493.85 309.35H484.85V318.35H493.85V309.35Z" stroke="black" stroke-width="0.999"/>
<path d="M492.43 273.65H501.43M496.93 269.15V278.15" stroke="black" stroke-width="0.999"/>
<path d="M501.56 288.04H492.56V297.04H501.56V288.04Z" stroke="black" stroke-width="0.999"/>
<path d="M504.99 278.1H513.99M509.49 273.6V282.6" stroke="black" stroke-width="0.999"/>
<path d="M406.6 327.9L415.6 336.9M415.6 327.9L406.6 336.9" stroke="black" stroke-width="0.999"/>
<path d="M149.5 287.665L155.485 278.665H143.515L149.5 287.665Z" stroke="black" stroke-width="0.999"/>
<path d="M514.42 233.29H523.42M518.92 228.79V237.79" stroke="black" stroke-width="0.999"/>
<path d="M243.584 417.5L237.22 411.136L230.856 417.5L237.22 423.864L243.584 417.5Z" stroke="black" stroke-width="0.999"/>
<path d="M219.734 408.1L213.37 401.736L207.006 408.1L213.37 414.464L219.734 408.1Z" stroke="black" stroke-width="0.999"/>
<path d="M501.64 265.67H510.64M506.14 261.17V270.17" stroke="black" stroke-width="0.999"/>
<path d="M411.174 84.6301L404.81 78.2661L398.446 84.6301L404.81 90.994L411.174 84.6301Z" fill="#9B96B0" stroke="black" stroke-width="0.999"/>
<path d="M428.724 108.23L422.36 101.866L415.996 108.23L422.36 114.594L428.724 108.23Z" fill="#9B96B0" stroke="black" stroke-width="0.999"/>
<path d="M471.42 140.135L465.435 149.135H477.405L471.42 140.135Z" stroke="black" stroke-width="0.999"/>
<path d="M457.62 280.23L466.62 289.23M466.62 280.23L457.62 289.23" stroke="black" stroke-width="0.999"/>
<path d="M449.35 307.33L458.35 316.33M458.35 307.33L449.35 316.33" stroke="black" stroke-width="0.999"/>
<path d="M430.374 53.29L424.01 46.926L417.646 53.29L424.01 59.6539L430.374 53.29Z" fill="#9B96B0" stroke="black" stroke-width="0.999"/>
<path d="M461.3 324.23H470.3M465.8 319.73V328.73" stroke="black" stroke-width="0.999"/>
<path d="M407.25 371.59L416.25 380.59M416.25 371.59L407.25 380.59" stroke="black" stroke-width="0.999"/>
<path d="M442.38 308.74L451.38 317.74M451.38 308.74L442.38 317.74" stroke="black" stroke-width="0.999"/>
<path d="M204.314 426.81L197.95 420.446L191.586 426.81L197.95 433.174L204.314 426.81Z" stroke="black" stroke-width="0.999"/>
<path d="M156.41 102.165L162.395 93.165H150.425L156.41 102.165Z" fill="#9B96B0" stroke="black" stroke-width="0.999"/>
<path d="M121.45 155.075L127.435 146.075H115.465L121.45 155.075Z" fill="#9B96B0" stroke="black" stroke-width="0.999"/>
<path d="M425.914 64.2199L419.55 57.856L413.186 64.2199L419.55 70.5839L425.914 64.2199Z" fill="#9B96B0" stroke="black" stroke-width="0.999"/>
<path d="M182.81 124.615L188.795 115.615H176.825L182.81 124.615Z" fill="#9B96B0" stroke="black" stroke-width="0.999"/>
<path d="M415 335.26L424 344.26M424 335.26L415 344.26" stroke="black" stroke-width="0.999"/>
<path d="M381.53 421.37L390.53 430.37M390.53 421.37L381.53 430.37" stroke="black" stroke-width="0.999"/>
<path d="M130.17 167.835L136.155 158.835H124.185L130.17 167.835Z" stroke="black" stroke-width="0.999"/>
<path d="M425.704 74.6401L419.34 68.2761L412.976 74.6401L419.34 81.004L425.704 74.6401Z" fill="#9B96B0" stroke="black" stroke-width="0.999"/>
<path d="M198.21 262.115L192.225 271.115H204.195L198.21 262.115Z" stroke="black" stroke-width="0.999"/>
<path d="M502.26 228.02H511.26M506.76 223.52V232.52" stroke="black" stroke-width="0.999"/>
<path d="M489.12 244.67H480.12V253.67H489.12V244.67Z" stroke="black" stroke-width="0.999"/>
<path d="M128.84 215.095L134.825 206.095H122.855L128.84 215.095Z" stroke="black" stroke-width="0.999"/>
<path d="M494.69 322.33H503.69M499.19 317.83V326.83" stroke="black" stroke-width="0.999"/>
<path d="M184.19 175.915L190.175 166.915H178.205L184.19 175.915Z" stroke="black" stroke-width="0.999"/>
<path d="M133.11 245.715L139.095 236.715H127.125L133.11 245.715Z" stroke="black" stroke-width="0.999"/>
<path d="M475.02 109.44H484.02M479.52 104.94V113.94M475.02 104.94L484.02 113.94M475.02 113.94L484.02 104.94" stroke="black" stroke-width="0.999"/>
<path d="M132.99 125.445L138.975 116.445H127.005L132.99 125.445Z" fill="#9B96B0" stroke="black" stroke-width="0.999"/>
<path d="M467.6 120.945L461.615 129.945H473.585L467.6 120.945Z" stroke="black" stroke-width="0.999"/>
<path d="M441.45 71.4199H450.45M445.95 66.9199V75.9199M441.45 66.9199L450.45 75.9199M441.45 75.9199L450.45 66.9199" stroke="black" stroke-width="0.999"/>
<path d="M117.59 167.025L123.575 158.025H111.605L117.59 167.025Z" fill="#9B96B0" stroke="black" stroke-width="0.999"/>
<path d="M431.16 172.185L425.175 181.185H437.145L431.16 172.185Z" stroke="black" stroke-width="0.999"/>
<path d="M260.34 187.245L254.355 196.245H266.325L260.34 187.245Z" stroke="black" stroke-width="0.999"/>
<path d="M478.46 113.08H487.46M482.96 108.58V117.58M478.46 108.58L487.46 117.58M478.46 117.58L487.46 108.58" stroke="black" stroke-width="0.999"/>
<path d="M229.4 131.935L235.385 122.935H223.415L229.4 131.935Z" stroke="black" stroke-width="0.999"/>
<path d="M108.63 219.365L114.615 210.365H102.645L108.63 219.365Z" stroke="black" stroke-width="0.999"/>
<path d="M165.57 242.925L171.555 233.925H159.585L165.57 242.925Z" stroke="black" stroke-width="0.999"/>
<path d="M413.13 366.55L422.13 375.55M422.13 366.55L413.13 375.55" stroke="black" stroke-width="0.999"/>
<path d="M438.13 379.66L447.13 388.66M447.13 379.66L438.13 388.66" stroke="black" stroke-width="0.999"/>
<path d="M188.09 152.255L194.075 143.255H182.105L188.09 152.255Z" stroke="black" stroke-width="0.999"/>
<path d="M478.98 135.59H487.98M483.48 131.09V140.09M478.98 131.09L487.98 140.09M478.98 140.09L487.98 131.09" stroke="black" stroke-width="0.999"/>
<path d="M211.914 423.07L205.55 416.706L199.186 423.07L205.55 429.434L211.914 423.07Z" stroke="black" stroke-width="0.999"/>
<path d="M463.44 362.45H472.44M467.94 357.95V366.95" stroke="black" stroke-width="0.999"/>
<path d="M138.46 149.395L144.445 140.395H132.475L138.46 149.395Z" fill="#9B96B0" stroke="black" stroke-width="0.999"/>
<path d="M423.004 75.09L416.64 68.7261L410.276 75.09L416.64 81.454L423.004 75.09Z" fill="#9B96B0" stroke="black" stroke-width="0.999"/>
<path d="M448.214 79.33L441.85 72.9661L435.486 79.33L441.85 85.694L448.214 79.33Z" fill="#9B96B0" stroke="black" stroke-width="0.999"/>
</g>
<path d="M523.85 143L518 152H529.7L523.85 143Z" stroke="black" stroke-width="0.999"/>
<path d="M519 63.5H528M523.5 59V68M519 59L528 68M519 68L528 59" stroke="black" stroke-width="0.999"/>
<path d="M519 21.5H528M523.5 17V26" stroke="black" stroke-width="0.999"/>
<path d="M528 80H519V89H528V80Z" stroke="black" stroke-width="0.999"/>
<path d="M540.5 84.812H544.7V85.676H540.5V84.812ZM550.251 84.848H552.003V85.688H550.251V87.476H549.315V85.688H547.587V84.848H549.315V83.06H550.251V84.848Z" fill="black"/>
<path d="M540.5 105.812H544.7V106.676H540.5V105.812ZM547.695 105.812H551.895V106.676H547.695V105.812Z" fill="black"/>
<path d="M540.5 126.812H544.7V127.676H540.5V126.812ZM546.831 131.876L551.955 121.292L552.759 121.676L547.647 132.236L546.831 131.876Z" fill="black"/>
<path d="M542.006 24.6113V22.2559H539.668V21.2715H542.006V18.9336H543.002V21.2715H545.34V22.2559H543.002V24.6113H542.006ZM549.014 24.6113V22.2559H546.676V21.2715H549.014V18.9336H550.01V21.2715H552.348V22.2559H550.01V24.6113H549.014Z" fill="black"/>
<path d="M543.056 42.848H544.808V43.688H543.056V45.476H542.12V43.688H540.392V42.848H542.12V41.06H543.056V42.848ZM547.695 42.812H551.895V43.676H547.695V42.812Z" fill="black"/>
<path d="M543.056 63.848H544.808V64.688H543.056V66.476H542.12V64.688H540.392V63.848H542.12V62.06H543.056V63.848ZM546.831 68.876L551.955 58.292L552.759 58.676L547.647 69.236L546.831 68.876Z" fill="black"/>
<path d="M539.636 152.876L544.76 142.292L545.564 142.676L540.452 153.236L539.636 152.876ZM550.251 147.848H552.003V148.688H550.251V150.476H549.315V148.688H547.587V147.848H549.315V146.06H550.251V147.848Z" fill="black"/>
<path d="M539.636 173.876L544.76 163.292L545.564 163.676L540.452 174.236L539.636 173.876ZM547.695 168.812H551.895V169.676H547.695V168.812Z" fill="black"/>
<path d="M539.636 194.876L544.76 184.292L545.564 184.676L540.452 195.236L539.636 194.876ZM546.831 194.876L551.955 184.292L552.759 184.676L547.647 195.236L546.831 194.876Z" fill="black"/>
<rect x="506.5" y="6.5" width="60" height="198" stroke="black"/>
<path d="M519 38L528 47M528 38L519 47" stroke="black" stroke-width="0.999"/>
<path d="M523.985 173L529.97 164H518L523.985 173Z" stroke="black" stroke-width="0.999"/>
<path d="M523.985 194L529.97 185H518L523.985 194Z" fill="#9B96B0" stroke="black" stroke-width="0.999"/>
<path d="M529.728 127.364L523.364 121L517 127.364L523.364 133.728L529.728 127.364Z" fill="#9B96B0" stroke="black" stroke-width="0.999"/>
<path d="M529.728 106.364L523.364 100L517 106.364L523.364 112.728L529.728 106.364Z" stroke="black" stroke-width="0.999"/>
<defs>
<clipPath id="clip0_0_1">
<rect width="600" height="480" fill="white"/>
</clipPath>
</defs>
</svg>
